<?xml version="1.0" encoding="UTF-8" standalone="no"?>
<svg
   version="1.1"
   id="svg2"
   xml:space="preserve"
   width="799.5639"
   height="173.57607"
   viewBox="0 0 799.5639 173.57607"
   sodipodi:docname="wcu-torch-logo-teal.svg"
   inkscape:version="1.2.2 (732a01da63, 2022-12-09)"
   xmlns:inkscape="http://www.inkscape.org/namespaces/inkscape"
   xmlns:sodipodi="http://sodipodi.sourceforge.net/DTD/sodipodi-0.dtd"
   xmlns="http://www.w3.org/2000/svg"
   xmlns:svg="http://www.w3.org/2000/svg"><sodipodi:namedview
   id="namedview22145"
   pagecolor="#ffffff"
   bordercolor="#999999"
   borderopacity="1"
   inkscape:showpageshadow="0"
   inkscape:pageopacity="0"
   inkscape:pagecheckerboard="0"
   inkscape:deskcolor="#d1d1d1"
   showgrid="false"
   inkscape:zoom="0.81044179"
   inkscape:cx="423.8429"
   inkscape:cy="41.33548"
   inkscape:window-width="1920"
   inkscape:window-height="986"
   inkscape:window-x="-11"
   inkscape:window-y="-11"
   inkscape:window-maximized="1"
   inkscape:current-layer="g36" />
  <metadata
   id="metadata8" />
  <defs
   id="defs6">
    <linearGradient
   x1="0"
   y1="0"
   x2="1"
   y2="0"
   gradientUnits="userSpaceOnUse"
   gradientTransform="matrix(0,40.303711,40.303711,0,109.02441,405.90625)"
   spreadMethod="pad"
   id="linearGradient30">
      <stop
   style="stop-opacity:1;stop-color:#ffffff"
   offset="0"
   id="stop24" />
      <stop
   style="stop-opacity:1;stop-color:#ffffff"
   offset="0.65555716"
   id="stop26" />
      <stop
   style="stop-opacity:1;stop-color:#ffffff"
   offset="1"
   id="stop28" />
    </linearGradient>
    <clipPath
   id="clipPath40">
      <path
   d="M 0,792 H 612 V 0 H 0 Z"
   id="path38" />
    </clipPath>
  </defs>
  <g
   id="g10"
   inkscape:groupmode="layer"
   inkscape:label="WCU_logo_3165C"
   transform="matrix(1.3333333,0,0,-1.3333333,-10.210903,1030.2499)">
    <g
   id="g12"
   transform="matrix(1.3656311,0,0,1.3271099,-110.22228,167.4797)"
   style="fill:#004d5a;fill-opacity:1">
      <g
   id="g14"
   style="fill:#004d5a;fill-opacity:1">
        <g
   id="g20"
   style="fill:#004d5a;fill-opacity:1">
          <g
   id="g22"
   style="fill:#004d5a;fill-opacity:1">
            <path
   d="m 96.253,428.151 c -2.649,-2.049 -4.163,-5.025 -3.598,-8.255 v 0 c 0.348,-1.973 1.305,-3.782 2.664,-5.308 v 0 c -0.374,2.35 -0.215,5.702 2.733,8.206 v 0 c 0.025,0.021 0.086,0.077 0.137,0.121 v 0 c 2.189,2.123 8.039,6.617 8.616,8.625 v 0 c 0.009,0.031 0.011,0.053 0.014,0.079 v 0 c 10e-4,-0.002 10e-4,-0.005 0.003,-0.011 v 0 c 0.488,-1.409 0.606,-2.772 0.498,-4.05 v 0 c 1.161,1.213 2.27,2.51 3.151,3.824 v 0 c 2.261,4.568 0.681,8.444 -0.135,9.943 v 0 c -1.244,1.934 -2.842,3.79 -4.438,4.885 v 0 c 2.058,-8.5 -6.809,-15.863 -9.645,-18.059 m 5.355,-8.287 c -3.805,-2.945 -5.982,-7.22 -5.169,-11.861 v 0 c 0.127,-0.718 0.325,-1.41 0.558,-2.097 v 0 h 4.316 c -0.084,1.999 0.446,4.408 2.796,6.292 v 0 c 0.027,0.021 9.6,7.035 13.082,12.463 v 0 l 0.05,0.109 c 0.002,0.007 0.004,0.016 0.004,0.024 v 0 c 0.002,-0.002 0.002,-0.006 0.002,-0.01 v 0 c 0,0 1.077,-2.257 1.434,-4.963 v 0 c 3.489,3.926 5.972,8.355 4.353,12.422 v 0 c -1.615,4.053 -3.967,6.62 -7.566,9.085 v 0 c 1.672,-9.245 -9.78,-18.306 -13.86,-21.464 m 20.815,1.84 c -0.83,-2.59 -9.318,-10.119 -12.351,-12.752 v 0 c -1.32,-1.115 -1.698,-1.885 -1.97,-2.651 v 0 h 8.025 c 1.592,1.352 4.46,3.538 4.776,4.583 v 0 c 0.005,0.016 0.007,0.033 0.008,0.048 v 0 c 0.001,-0.004 0.001,-0.006 0.001,-0.006 v 0 c 0.366,-1 0.389,-1.956 0.241,-2.837 v 0 c 2.891,2.931 5.274,6.342 4.013,9.507 v 0 c -0.688,1.723 -1.568,3.061 -2.718,4.23 v 0 c -0.007,-0.041 -0.013,-0.076 -0.025,-0.122"
   style="fill:#004d5a;stroke:none;fill-opacity:1"
   id="path32" />
          </g>
        </g>
      </g>
    </g>
    <g
   id="g34"
   transform="matrix(1.3656311,0,0,1.3271099,-110.22228,167.4797)">
      <g
   id="g36"
   clip-path="url(#clipPath40)">
        <g
   id="g42"
   transform="translate(188.1582,448.751)"
   style="fill:#004d5a;fill-opacity:1">
          <path
   d="m 0,0 c 0.436,1.182 0.809,1.994 0.809,2.615 0,1.553 -1.435,1.865 -3.488,1.865 -1.679,0 -3.047,-0.312 -3.047,-1.554 0,-0.932 0.496,-1.806 0.996,-2.987 l 2.365,-5.54 h 0.126 z m -5.104,-18.551 -8.216,-19.482 h -2.119 l -15.683,36.974 c -1.248,2.925 -2.055,5.539 -5.42,5.539 h -0.934 v 1.869 c 2.366,0 5.978,-0.247 8.966,-0.247 2.614,0 5.849,0.247 7.843,0.247 V 4.48 h -0.562 c -1.432,0 -2.673,-0.245 -2.673,-1.431 0,-0.806 0.56,-2.676 2.116,-6.41 l 10.205,-23.963 5.043,12.136 -7.782,17.989 c -0.619,1.434 -2.174,1.679 -3.794,1.679 v 1.869 c 2.926,0 5.848,-0.247 8.775,-0.247 2.307,0 4.547,0.247 6.848,0.247 1.995,0 3.986,-0.247 5.975,-0.247 1.871,0 3.738,0.247 5.604,0.247 V 4.48 H 8.218 C 5.103,4.48 4.356,3.301 2.8,-0.247 l -3.671,-8.528 7.657,-18.055 9.582,26.144 c 0.376,1.059 0.938,2.616 0.938,3.426 0,1.367 -1.118,1.74 -3.735,1.74 h -0.749 v 1.869 c 2.055,0 4.109,-0.247 6.164,-0.247 1.864,0 3.674,0.247 5.54,0.247 V 4.48 H 23.78 c -1.868,0 -2.93,-2.115 -3.673,-4.044 L 5.415,-38.033 H 3.236 Z"
   style="fill:#004d5a;fill-opacity:1;fill-rule:nonzero;stroke:none"
   id="path44" />
        </g>
        <g
   id="g46"
   transform="translate(214.5313,413.249)"
   style="fill:#004d5a;fill-opacity:1">
          <path
   d="m 0,0 h 0.745 c 1.922,0 3.949,0.268 3.949,3.047 v 27.957 c 0,2.775 -2.027,3.04 -3.949,3.04 H 0 v 1.602 c 3.249,0 8.8,-0.212 13.279,-0.212 4.489,0 10.037,0.212 13.664,0.212 -0.105,-2.296 -0.053,-5.818 0.106,-8.164 L 25.45,27.055 c -0.267,3.466 -0.909,6.242 -6.512,6.242 H 11.524 V 19.318 h 6.347 c 3.205,0 3.896,1.811 4.217,4.696 h 1.601 c -0.107,-2.081 -0.161,-4.161 -0.161,-6.244 0,-2.03 0.054,-4.058 0.161,-6.084 l -1.601,-0.319 c -0.321,3.201 -0.48,5.279 -4.158,5.279 H 11.524 V 4.218 c 0,-3.472 3.094,-3.472 6.507,-3.472 6.405,0 9.233,0.431 10.833,6.515 l 1.493,-0.375 c -0.691,-2.829 -1.336,-5.657 -1.815,-8.483 -3.416,0 -9.553,0.213 -14.351,0.213 C 9.388,-1.384 3.038,-1.597 0,-1.597 Z"
   style="fill:#004d5a;fill-opacity:1;fill-rule:nonzero;stroke:none"
   id="path48" />
        </g>
        <g
   id="g50"
   transform="translate(270.4043,440.9971)"
   style="fill:#004d5a;fill-opacity:1">
          <path
   d="m 0,0 c -0.373,3.469 -2.614,6.777 -6.296,6.777 -4.212,0 -6.562,-2.509 -6.562,-6.72 0,-8.858 16.004,-6.194 16.004,-18.998 0,-7.364 -6.078,-11.207 -12.905,-11.207 -2.991,0 -5.872,1.066 -8.489,2.4 -0.263,2.724 -0.637,5.394 -0.904,8.111 l 1.492,0.321 c 0.641,-4.536 3.203,-8.482 8.273,-8.482 3.626,0 6.56,2.296 6.56,6.081 0,9.445 -15.684,6.508 -15.684,19.373 0,6.934 4.907,11.041 11.79,11.041 1.493,0 6.032,-0.587 7.685,-0.8 0,-2.51 0.212,-5.071 0.533,-7.627 z"
   style="fill:#004d5a;fill-opacity:1;fill-rule:nonzero;stroke:none"
   id="path52" />
        </g>
        <g
   id="g54"
   transform="translate(284.3276,446.2256)"
   style="fill:#004d5a;fill-opacity:1">
          <path
   d="m 0,0 c -3.999,0 -4.158,-0.961 -4.957,-4.855 h -1.602 c 0.209,1.494 0.483,2.987 0.638,4.537 0.218,1.492 0.323,2.987 0.323,4.535 h 1.279 c 0.425,-1.598 1.764,-1.548 3.2,-1.548 h 27.532 c 1.445,0 2.779,0.054 2.884,1.655 L 30.581,4.11 C 30.364,2.669 30.149,1.229 29.991,-0.213 29.885,-1.652 29.885,-3.094 29.885,-4.535 L 28.282,-5.121 C 28.178,-3.148 27.909,0 24.338,0 h -8.754 v -28.387 c 0,-4.107 1.87,-4.59 4.428,-4.59 h 1.014 v -1.596 c -2.077,0 -5.815,0.213 -8.695,0.213 -3.202,0 -6.934,-0.213 -9.019,-0.213 v 1.596 h 1.015 c 2.934,0 4.429,0.268 4.429,4.487 V 0 Z"
   style="fill:#004d5a;fill-opacity:1;fill-rule:nonzero;stroke:none"
   id="path56" />
        </g>
        <g
   id="g58"
   transform="translate(373.873,442.2764)">
          <path
   d="m 0,0 c -1.0587296,3.9847014 -3.1687056,8.1638186 -7.1991547,9.8083831 -4.5069513,1.7646639 -9.8817773,1.7165039 -14.1958313,-0.5769742 -5.540087,-3.0343749 -7.858247,-9.62597076 -8.073811,-15.6248192 -0.316825,-6.9431857 1.572297,-14.5556147 7.133577,-19.1294987 4.38478,-3.473206 10.870487,-4.395819 15.9379793,-1.903454 3.4724586,1.764065 5.72183319,5.302187 6.6452407,9.004363 1.0470132,-0.123036 2.3469058,-0.06138 1.4587148,-1.51368 C 1.0812961,-22.843976 0.70956604,-25.800092 0.434,-28.76 c -7.3387343,-3.031703 -15.753007,-3.71729 -23.418451,-1.533439 -6.022238,1.697058 -11.300202,6.137524 -13.501798,12.059861 -2.137109,5.791002 -2.448197,12.4303996 -0.217531,18.24272241 2.680232,7.01196979 9.484859,11.78635359 16.71334,13.16478259 5.393524,1.120984 11.0604825,0.616854 16.2198028,-1.292021 1.4502608,-0.973385 4.6162804,-0.394623 5.1302556,-1.880925 C 1.3235515,6.7442387 1.4654974,3.4823104 1.867,0.249 1.2446667,0.166 0.62233333,0.083 0,0 Z"
   style="fill:#004d5a;fill-opacity:1;fill-rule:nonzero;stroke:none"
   id="path60" />
        </g>
        <g
   id="g62"
   transform="translate(401.4531,413.1992)"
   style="fill:#004d5a;fill-opacity:1">
          <path
   d="m 0,0 c 10.35,0 12.164,9.122 12.164,16.911 0,7.796 -4.213,17.236 -13.07,17.236 -9.342,0 -12.114,-8.322 -12.114,-15.472 C -13.02,9.122 -8.643,0 0,0 m -0.801,36.495 c 11.369,0 20.438,-7.043 20.438,-18.406 0,-12.272 -8.809,-20.44 -20.17,-20.44 -11.309,0 -19.957,7.686 -19.957,19.159 0,11.097 8.59,19.687 19.689,19.687"
   style="fill:#004d5a;fill-opacity:1;fill-rule:nonzero;stroke:none"
   id="path64" />
        </g>
        <g
   id="g66"
   transform="translate(436.9746,442.9209)"
   style="fill:#004d5a;fill-opacity:1">
          <path
   d="m 0,0 h -0.109 l -4.963,-15.104 h 9.976 z m -7.793,-23.641 c -0.533,-1.813 -1.178,-3.199 -1.178,-4.163 0,-1.6 2.25,-1.868 4.006,-1.868 h 0.588 v -1.597 c -2.135,0.103 -4.32,0.213 -6.459,0.213 -1.918,0 -3.838,-0.11 -5.76,-0.213 v 1.597 h 0.323 c 2.076,0 3.839,1.229 4.638,3.469 l 8.539,24.49 c 0.694,1.977 1.651,4.645 1.975,6.617 1.707,0.586 3.836,1.656 4.855,2.293 0.161,0.057 0.264,0.111 0.426,0.111 0.16,0 0.266,0 0.371,-0.163 C 4.693,6.721 4.854,6.236 5.016,5.813 l 9.816,-27.907 c 0.637,-1.869 1.281,-3.839 1.973,-5.438 0.638,-1.497 1.761,-2.14 3.521,-2.14 h 0.32 v -1.597 c -2.4,0.103 -4.804,0.213 -7.361,0.213 -2.615,0 -5.281,-0.11 -8.006,-0.213 v 1.597 h 0.586 c 1.229,0 3.311,0.218 3.311,1.552 0,0.694 -0.479,2.131 -1.069,3.843 L 6.025,-18.09 H -6.086 Z"
   style="fill:#004d5a;fill-opacity:1;fill-rule:nonzero;stroke:none"
   id="path68" />
        </g>
        <g
   id="g70"
   transform="translate(480.9355,440.9971)"
   style="fill:#004d5a;fill-opacity:1">
          <path
   d="m 0,0 c -0.373,3.469 -2.613,6.777 -6.295,6.777 -4.215,0 -6.559,-2.509 -6.559,-6.72 0,-8.858 16.006,-6.194 16.006,-18.998 0,-7.364 -6.086,-11.207 -12.916,-11.207 -2.986,0 -5.867,1.066 -8.482,2.4 -0.268,2.724 -0.639,5.394 -0.906,8.111 l 1.494,0.321 c 0.64,-4.536 3.201,-8.482 8.269,-8.482 3.627,0 6.565,2.296 6.565,6.081 0,9.445 -15.69,6.508 -15.69,19.373 0,6.934 4.91,11.041 11.793,11.041 1.492,0 6.028,-0.587 7.682,-0.8 0,-2.51 0.215,-5.071 0.533,-7.627 z"
   style="fill:#004d5a;fill-opacity:1;fill-rule:nonzero;stroke:none"
   id="path72" />
        </g>
        <g
   id="g74"
   transform="translate(494.8652,446.2256)"
   style="fill:#004d5a;fill-opacity:1">
          <path
   d="m 0,0 c -4.006,0 -4.164,-0.961 -4.965,-4.855 h -1.601 c 0.216,1.494 0.48,2.987 0.642,4.537 0.213,1.492 0.319,2.987 0.319,4.535 h 1.285 c 0.424,-1.598 1.756,-1.548 3.197,-1.548 h 27.535 c 1.436,0 2.772,0.054 2.879,1.655 L 30.572,4.11 C 30.357,2.669 30.146,1.229 29.984,-0.213 29.875,-1.652 29.875,-3.094 29.875,-4.535 L 28.279,-5.121 C 28.17,-3.148 27.906,0 24.326,0 H 15.58 v -28.387 c 0,-4.107 1.863,-4.59 4.426,-4.59 h 1.014 v -1.596 c -2.082,0 -5.815,0.213 -8.7,0.213 -3.199,0 -6.933,-0.213 -9.015,-0.213 v 1.596 h 1.013 c 2.934,0 4.428,0.268 4.428,4.487 V 0 Z"
   style="fill:#004d5a;fill-opacity:1;fill-rule:nonzero;stroke:none"
   id="path76" />
        </g>
        <g
   id="g78"
   transform="translate(91.8594,395.917)"
   style="fill:#004d5a;fill-opacity:1">
          <path
   d="M 0,0 C 0,4.48 -2.303,4.541 -4.792,4.541 H -5.54 v 1.867 c 2.681,0 5.979,-0.248 9.9,-0.248 3.735,0 6.848,0.248 9.333,0.248 V 4.541 H 12.949 C 10.461,4.541 7.968,4.48 7.968,0 v -21.477 c 0,-7.906 2.925,-13.382 11.828,-13.382 8.215,0 11.828,5.227 11.828,13.629 V 0 c 0,4.48 -2.365,4.541 -4.48,4.541 h -1.249 v 1.867 c 2.491,0 5.042,-0.248 7.537,-0.248 2.425,0 4.788,0.248 7.218,0.248 V 4.541 H 39.346 C 37.66,4.541 35.357,4.48 35.357,0 v -19.864 c 0,-14.061 -7.468,-18.113 -16.743,-18.113 C 6.66,-37.977 0,-33.615 0,-22.475 Z"
   style="fill:#004d5a;fill-opacity:1;fill-rule:nonzero;stroke:none"
   id="path80" />
        </g>
        <g
   id="g82"
   transform="translate(169.7393,369.3916)"
   style="fill:#004d5a;fill-opacity:1">
          <path
   d="M 0,0 0.105,0.104 V 20.11 c 0,4.376 -3.04,5.015 -4.643,5.015 h -1.173 v 1.604 c 2.505,0 4.964,-0.211 7.47,-0.211 2.187,0 4.378,0.211 6.565,0.211 V 25.125 H 7.521 c -2.239,0 -4.746,-0.424 -4.746,-6.773 V -5.926 c 0,-1.869 0.05,-3.738 0.318,-5.392 H 1.068 L -26.411,19.314 V -2.672 c 0,-4.641 0.904,-6.246 5.015,-6.246 h 0.906 v -1.597 c -2.293,0 -4.588,0.214 -6.882,0.214 -2.401,0 -4.855,-0.214 -7.257,-0.214 v 1.597 h 0.746 c 3.683,0 4.806,2.51 4.806,6.781 v 22.461 c 0,2.989 -2.462,4.801 -4.856,4.801 h -0.696 v 1.604 c 2.029,0 4.108,-0.211 6.134,-0.211 1.604,0 3.15,0.211 4.752,0.211 z"
   style="fill:#004d5a;fill-opacity:1;fill-rule:nonzero;stroke:none"
   id="path84" />
        </g>
        <g
   id="g86"
   transform="translate(183.3267,360.4736)"
   style="fill:#004d5a;fill-opacity:1">
          <path
   d="m 0,0 h 0.746 c 1.92,0 3.947,0.271 3.947,3.047 v 27.959 c 0,2.773 -2.027,3.037 -3.947,3.037 H 0 v 1.603 c 2.08,0 5.282,-0.21 7.894,-0.21 2.669,0 5.868,0.21 8.378,0.21 v -1.603 h -0.744 c -1.923,0 -3.953,-0.264 -3.953,-3.037 V 3.047 C 11.575,0.271 13.605,0 15.528,0 h 0.744 v -1.597 c -2.561,0 -5.759,0.214 -8.431,0.214 C 5.226,-1.383 2.08,-1.597 0,-1.597 Z"
   style="fill:#004d5a;fill-opacity:1;fill-rule:nonzero;stroke:none"
   id="path88" />
        </g>
        <g
   id="g90"
   transform="translate(221.3965,394.5166)"
   style="fill:#004d5a;fill-opacity:1">
          <path
   d="m 0,0 h -1.229 c -1.976,0 -2.772,-0.797 -2.772,-1.492 0,-0.265 0.212,-1.011 0.48,-1.705 l 9.123,-23.744 h 0.106 l 8.481,22.195 c 0.644,1.652 0.696,2.617 0.696,2.989 0,1.544 -1.596,1.757 -3.412,1.757 h -0.907 v 1.604 c 1.866,0 3.896,-0.211 6.186,-0.211 1.654,0 3.361,0.211 4.914,0.211 L 21.666,0 H 21.13 C 20.172,0 19.154,-0.16 18.303,-1.865 17.872,-2.613 10.083,-22.301 6.614,-31.156 5.924,-32.92 5.068,-34.68 4.43,-36.443 H 2.454 L -11.099,-3.037 C -12.115,-0.531 -13.236,0 -15.58,0 h -0.534 v 1.604 c 2.718,0 5.494,-0.211 8.215,-0.211 2.616,0 6.349,0.211 7.899,0.211 z"
   style="fill:#004d5a;fill-opacity:1;fill-rule:nonzero;stroke:none"
   id="path92" />
        </g>
        <g
   id="g94"
   transform="translate(247.3936,360.4736)"
   style="fill:#004d5a;fill-opacity:1">
          <path
   d="M 0,0 H 0.745 C 2.67,0 4.697,0.271 4.697,3.047 v 27.959 c 0,2.773 -2.027,3.037 -3.952,3.037 H 0 v 1.603 c 3.256,0 8.805,-0.21 13.283,-0.21 4.483,0 10.031,0.21 13.663,0.21 -0.111,-2.296 -0.053,-5.816 0.106,-8.16 l -1.6,-0.431 c -0.268,3.467 -0.904,6.242 -6.513,6.242 H 11.524 V 19.318 h 6.354 c 3.199,0 3.893,1.815 4.209,4.698 h 1.601 c -0.102,-2.083 -0.155,-4.162 -0.155,-6.245 0,-2.03 0.053,-4.056 0.155,-6.084 l -1.601,-0.319 c -0.316,3.2 -0.477,5.28 -4.16,5.28 H 11.524 V 4.217 c 0,-3.471 3.095,-3.471 6.514,-3.471 6.399,0 9.226,0.432 10.828,6.514 L 30.36,6.887 c -0.697,-2.83 -1.334,-5.658 -1.814,-8.484 -3.416,0 -9.55,0.214 -14.352,0.214 C 9.39,-1.383 3.043,-1.597 0,-1.597 Z"
   style="fill:#004d5a;fill-opacity:1;fill-rule:nonzero;stroke:none"
   id="path96" />
        </g>
        <g
   id="g98"
   transform="translate(296.3477,378.083)"
   style="fill:#004d5a;fill-opacity:1">
          <path
   d="m 0,0 h 2.619 c 5.334,0 8.216,2.027 8.216,8.324 0,4.748 -3.042,7.789 -7.793,7.789 -1.599,0 -2.291,-0.156 -3.042,-0.211 z m -6.826,12.379 c 0,3.894 -2.132,4.055 -3.788,4.055 h -0.963 v 1.603 c 1.706,0 5.016,-0.211 8.273,-0.211 3.2,0 5.763,0.211 8.591,0.211 6.721,0 12.695,-1.816 12.695,-9.392 0,-4.803 -3.199,-7.736 -7.419,-9.389 l 9.13,-13.662 c 1.495,-2.239 2.561,-2.881 5.178,-3.203 v -1.597 c -1.766,0 -3.473,0.214 -5.236,0.214 -1.653,0 -3.36,-0.214 -5.014,-0.214 -4.109,5.39 -7.629,11.15 -11.101,17.286 H 0 v -11.422 c 0,-4.107 1.926,-4.267 4.377,-4.267 h 0.961 v -1.597 c -3.039,0 -6.137,0.214 -9.176,0.214 -2.561,0 -5.072,-0.214 -7.739,-0.214 v 1.597 h 0.963 c 1.973,0 3.788,0.911 3.788,2.886 z"
   style="fill:#004d5a;fill-opacity:1;fill-rule:nonzero;stroke:none"
   id="path100" />
        </g>
        <g
   id="g102"
   transform="translate(344.7402,388.2236)"
   style="fill:#004d5a;fill-opacity:1">
          <path
   d="m 0,0 c -0.373,3.469 -2.609,6.775 -6.293,6.775 -4.217,0 -6.561,-2.508 -6.561,-6.72 0,-8.858 16.002,-6.194 16.002,-18.997 0,-7.365 -6.082,-11.208 -12.91,-11.208 -2.99,0 -5.867,1.068 -8.486,2.4 -0.264,2.725 -0.641,5.396 -0.902,8.111 l 1.494,0.324 c 0.636,-4.539 3.199,-8.486 8.263,-8.486 3.633,0 6.565,2.297 6.565,6.083 0,9.445 -15.684,6.51 -15.684,19.372 0,6.936 4.91,11.043 11.791,11.043 1.492,0 6.028,-0.588 7.682,-0.801 0,-2.509 0.211,-5.07 0.533,-7.628 z"
   style="fill:#004d5a;fill-opacity:1;fill-rule:nonzero;stroke:none"
   id="path104" />
        </g>
        <g
   id="g106"
   transform="translate(353.7734,360.4736)"
   style="fill:#004d5a;fill-opacity:1">
          <path
   d="m 0,0 h 0.744 c 1.928,0 3.955,0.271 3.955,3.047 v 27.959 c 0,2.773 -2.027,3.037 -3.955,3.037 H 0 v 1.603 c 2.082,0 5.283,-0.21 7.896,-0.21 2.668,0 5.874,0.21 8.379,0.21 v -1.603 h -0.75 c -1.918,0 -3.947,-0.264 -3.947,-3.037 V 3.047 C 11.578,0.271 13.607,0 15.525,0 h 0.75 v -1.597 c -2.562,0 -5.761,0.214 -8.425,0.214 -2.62,0 -5.768,-0.214 -7.85,-0.214 z"
   style="fill:#004d5a;fill-opacity:1;fill-rule:nonzero;stroke:none"
   id="path108" />
        </g>
        <g
   id="g110"
   transform="translate(382.6113,393.4502)"
   style="fill:#004d5a;fill-opacity:1">
          <path
   d="m 0,0 c -3.998,0 -4.16,-0.96 -4.961,-4.855 h -1.598 c 0.211,1.494 0.479,2.987 0.635,4.537 0.221,1.492 0.322,2.988 0.322,4.535 h 1.28 C -3.896,2.621 -2.561,2.67 -1.119,2.67 h 27.533 c 1.44,0 2.774,0.055 2.885,1.654 L 30.576,4.11 C 30.359,2.67 30.15,1.228 29.988,-0.211 29.881,-1.65 29.881,-3.094 29.881,-4.533 l -1.6,-0.586 C 28.178,-3.146 27.904,0 24.332,0 h -8.746 v -28.386 c 0,-4.108 1.867,-4.591 4.42,-4.591 h 1.017 v -1.596 c -2.08,0 -5.808,0.214 -8.697,0.214 -3.197,0 -6.933,-0.214 -9.015,-0.214 v 1.596 h 1.017 c 2.932,0 4.428,0.271 4.428,4.488 V 0 Z"
   style="fill:#004d5a;fill-opacity:1;fill-rule:nonzero;stroke:none"
   id="path112" />
        </g>
        <g
   id="g114"
   transform="translate(433.7676,376.2734)"
   style="fill:#004d5a;fill-opacity:1">
          <path
   d="m 0,0 -10.676,14.62 c -1.594,2.238 -2.611,3.623 -5.115,3.623 h -0.537 v 1.604 c 2.883,0 5.492,-0.211 8.375,-0.211 2.775,0 5.336,0.211 7.902,0.211 V 18.243 H -0.75 c -1.438,0 -2.771,-0.371 -2.771,-1.224 0,-0.588 0.638,-1.279 0.962,-1.764 l 8.057,-11.308 6.609,9.55 c 0.961,1.549 1.655,2.455 1.655,3.469 0,1.117 -2.289,1.277 -3.037,1.277 H 9.764 v 1.604 c 2.025,0 4.056,-0.211 6.082,-0.211 1.711,0 3.416,0.211 5.07,0.211 v -1.604 c -1.814,0 -3.309,-1.277 -4.166,-2.451 L 6.83,1.757 v -12.75 c 0,-4.536 1.598,-4.807 4.426,-4.807 h 1.012 v -1.596 c -3.149,0 -6.346,0.213 -8.698,0.213 -2.664,0 -5.869,-0.213 -9.017,-0.213 v 1.596 h 1.015 c 3.151,0 4.432,0.857 4.432,4.379 z"
   style="fill:#004d5a;fill-opacity:1;fill-rule:nonzero;stroke:none"
   id="path116" />
        </g>
      </g>
    </g>
  </g>
</svg>
